<mxfile host="Electron" agent="Mozilla/5.0 (Macintosh; Intel Mac OS X 10_15_7) AppleWebKit/537.36 (KHTML, like Gecko) draw.io/26.0.16 Chrome/132.0.6834.196 Electron/34.2.0 Safari/537.36" version="26.0.16">
  <diagram name="第 1 页" id="21L-f0AI7YVNneMC6AwL">
    <mxGraphModel dx="1511" dy="769" grid="1" gridSize="10" guides="1" tooltips="1" connect="1" arrows="1" fold="1" page="1" pageScale="1" pageWidth="827" pageHeight="1169" math="0" shadow="0">
      <root>
        <mxCell id="0" />
        <mxCell id="1" parent="0" />
        <mxCell id="ly09rOsl8JHDzHFU_jVQ-1" style="rounded=0;orthogonalLoop=1;jettySize=auto;html=1;exitX=1;exitY=0.5;exitDx=0;exitDy=0;entryX=0;entryY=0.5;entryDx=0;entryDy=0;strokeColor=none;" edge="1" parent="1" source="ly09rOsl8JHDzHFU_jVQ-2" target="ly09rOsl8JHDzHFU_jVQ-3">
          <mxGeometry relative="1" as="geometry" />
        </mxCell>
        <mxCell id="ly09rOsl8JHDzHFU_jVQ-2" value="1" style="ellipse;whiteSpace=wrap;html=1;aspect=fixed;" vertex="1" parent="1">
          <mxGeometry x="170" y="220" width="40" height="40" as="geometry" />
        </mxCell>
        <mxCell id="ly09rOsl8JHDzHFU_jVQ-3" value="4" style="ellipse;whiteSpace=wrap;html=1;aspect=fixed;" vertex="1" parent="1">
          <mxGeometry x="390" y="220" width="40" height="40" as="geometry" />
        </mxCell>
        <mxCell id="ly09rOsl8JHDzHFU_jVQ-4" value="2" style="ellipse;whiteSpace=wrap;html=1;aspect=fixed;" vertex="1" parent="1">
          <mxGeometry x="50" y="370" width="40" height="40" as="geometry" />
        </mxCell>
        <mxCell id="ly09rOsl8JHDzHFU_jVQ-5" value="3" style="ellipse;whiteSpace=wrap;html=1;aspect=fixed;" vertex="1" parent="1">
          <mxGeometry x="290" y="370" width="40" height="40" as="geometry" />
        </mxCell>
        <mxCell id="ly09rOsl8JHDzHFU_jVQ-6" value="5" style="ellipse;whiteSpace=wrap;html=1;aspect=fixed;" vertex="1" parent="1">
          <mxGeometry x="404" y="420" width="40" height="40" as="geometry" />
        </mxCell>
        <mxCell id="ly09rOsl8JHDzHFU_jVQ-7" value="" style="endArrow=none;html=1;rounded=0;exitX=1;exitY=0.5;exitDx=0;exitDy=0;entryX=0;entryY=0.5;entryDx=0;entryDy=0;" edge="1" parent="1" source="ly09rOsl8JHDzHFU_jVQ-2" target="ly09rOsl8JHDzHFU_jVQ-3">
          <mxGeometry width="50" height="50" relative="1" as="geometry">
            <mxPoint x="250" y="290" as="sourcePoint" />
            <mxPoint x="300" y="240" as="targetPoint" />
          </mxGeometry>
        </mxCell>
        <mxCell id="ly09rOsl8JHDzHFU_jVQ-8" value="9" style="edgeLabel;html=1;align=center;verticalAlign=middle;resizable=0;points=[];" vertex="1" connectable="0" parent="ly09rOsl8JHDzHFU_jVQ-7">
          <mxGeometry x="-0.3667" y="-3" relative="1" as="geometry">
            <mxPoint as="offset" />
          </mxGeometry>
        </mxCell>
        <mxCell id="ly09rOsl8JHDzHFU_jVQ-9" value="" style="endArrow=none;html=1;rounded=0;exitX=1;exitY=0.5;exitDx=0;exitDy=0;entryX=0;entryY=0.5;entryDx=0;entryDy=0;" edge="1" parent="1" source="ly09rOsl8JHDzHFU_jVQ-4" target="ly09rOsl8JHDzHFU_jVQ-5">
          <mxGeometry width="50" height="50" relative="1" as="geometry">
            <mxPoint x="220" y="250" as="sourcePoint" />
            <mxPoint x="400" y="250" as="targetPoint" />
          </mxGeometry>
        </mxCell>
        <mxCell id="ly09rOsl8JHDzHFU_jVQ-10" value="5" style="edgeLabel;html=1;align=center;verticalAlign=middle;resizable=0;points=[];" vertex="1" connectable="0" parent="ly09rOsl8JHDzHFU_jVQ-9">
          <mxGeometry x="-0.14" y="4" relative="1" as="geometry">
            <mxPoint as="offset" />
          </mxGeometry>
        </mxCell>
        <mxCell id="ly09rOsl8JHDzHFU_jVQ-11" value="" style="endArrow=none;html=1;rounded=0;exitX=0;exitY=1;exitDx=0;exitDy=0;entryX=1;entryY=0;entryDx=0;entryDy=0;" edge="1" parent="1" source="ly09rOsl8JHDzHFU_jVQ-2" target="ly09rOsl8JHDzHFU_jVQ-4">
          <mxGeometry width="50" height="50" relative="1" as="geometry">
            <mxPoint x="100" y="400" as="sourcePoint" />
            <mxPoint x="300" y="400" as="targetPoint" />
          </mxGeometry>
        </mxCell>
        <mxCell id="ly09rOsl8JHDzHFU_jVQ-12" value="7" style="edgeLabel;html=1;align=center;verticalAlign=middle;resizable=0;points=[];" vertex="1" connectable="0" parent="ly09rOsl8JHDzHFU_jVQ-11">
          <mxGeometry x="-0.1836" y="-3" relative="1" as="geometry">
            <mxPoint as="offset" />
          </mxGeometry>
        </mxCell>
        <mxCell id="ly09rOsl8JHDzHFU_jVQ-13" value="" style="endArrow=none;html=1;rounded=0;exitX=0.5;exitY=1;exitDx=0;exitDy=0;entryX=1;entryY=0;entryDx=0;entryDy=0;" edge="1" parent="1" source="ly09rOsl8JHDzHFU_jVQ-3" target="ly09rOsl8JHDzHFU_jVQ-5">
          <mxGeometry width="50" height="50" relative="1" as="geometry">
            <mxPoint x="110" y="410" as="sourcePoint" />
            <mxPoint x="310" y="410" as="targetPoint" />
          </mxGeometry>
        </mxCell>
        <mxCell id="ly09rOsl8JHDzHFU_jVQ-14" value="6" style="edgeLabel;html=1;align=center;verticalAlign=middle;resizable=0;points=[];" vertex="1" connectable="0" parent="ly09rOsl8JHDzHFU_jVQ-13">
          <mxGeometry x="-0.0098" y="-1" relative="1" as="geometry">
            <mxPoint y="1" as="offset" />
          </mxGeometry>
        </mxCell>
        <mxCell id="ly09rOsl8JHDzHFU_jVQ-15" value="" style="endArrow=none;html=1;rounded=0;exitX=0.5;exitY=0;exitDx=0;exitDy=0;entryX=0.5;entryY=0;entryDx=0;entryDy=0;edgeStyle=orthogonalEdgeStyle;curved=1;" edge="1" parent="1" source="ly09rOsl8JHDzHFU_jVQ-4" target="ly09rOsl8JHDzHFU_jVQ-3">
          <mxGeometry width="50" height="50" relative="1" as="geometry">
            <mxPoint x="100" y="400" as="sourcePoint" />
            <mxPoint x="300" y="400" as="targetPoint" />
          </mxGeometry>
        </mxCell>
        <mxCell id="ly09rOsl8JHDzHFU_jVQ-16" value="4" style="edgeLabel;html=1;align=center;verticalAlign=middle;resizable=0;points=[];" vertex="1" connectable="0" parent="ly09rOsl8JHDzHFU_jVQ-15">
          <mxGeometry x="-0.1333" y="-27" relative="1" as="geometry">
            <mxPoint as="offset" />
          </mxGeometry>
        </mxCell>
        <mxCell id="ly09rOsl8JHDzHFU_jVQ-17" value="" style="endArrow=none;html=1;rounded=0;exitX=0.5;exitY=1;exitDx=0;exitDy=0;entryX=0;entryY=0.5;entryDx=0;entryDy=0;edgeStyle=orthogonalEdgeStyle;curved=1;" edge="1" parent="1" source="ly09rOsl8JHDzHFU_jVQ-4" target="ly09rOsl8JHDzHFU_jVQ-6">
          <mxGeometry width="50" height="50" relative="1" as="geometry">
            <mxPoint x="80" y="380" as="sourcePoint" />
            <mxPoint x="420" y="230" as="targetPoint" />
          </mxGeometry>
        </mxCell>
        <mxCell id="ly09rOsl8JHDzHFU_jVQ-18" value="4" style="edgeLabel;html=1;align=center;verticalAlign=middle;resizable=0;points=[];" vertex="1" connectable="0" parent="ly09rOsl8JHDzHFU_jVQ-17">
          <mxGeometry x="0.0714" y="4" relative="1" as="geometry">
            <mxPoint as="offset" />
          </mxGeometry>
        </mxCell>
        <mxCell id="ly09rOsl8JHDzHFU_jVQ-19" value="" style="endArrow=none;html=1;rounded=0;entryX=1;entryY=0.5;entryDx=0;entryDy=0;exitX=0.5;exitY=0;exitDx=0;exitDy=0;" edge="1" parent="1" source="ly09rOsl8JHDzHFU_jVQ-6" target="ly09rOsl8JHDzHFU_jVQ-3">
          <mxGeometry width="50" height="50" relative="1" as="geometry">
            <mxPoint x="510" y="390" as="sourcePoint" />
            <mxPoint x="560" y="340" as="targetPoint" />
          </mxGeometry>
        </mxCell>
        <mxCell id="ly09rOsl8JHDzHFU_jVQ-20" value="2" style="edgeLabel;html=1;align=center;verticalAlign=middle;resizable=0;points=[];" vertex="1" connectable="0" parent="ly09rOsl8JHDzHFU_jVQ-19">
          <mxGeometry x="-0.1454" y="3" relative="1" as="geometry">
            <mxPoint as="offset" />
          </mxGeometry>
        </mxCell>
        <mxCell id="ly09rOsl8JHDzHFU_jVQ-21" value="" style="endArrow=none;html=1;rounded=0;exitX=1;exitY=1;exitDx=0;exitDy=0;entryX=0;entryY=0;entryDx=0;entryDy=0;" edge="1" parent="1" source="ly09rOsl8JHDzHFU_jVQ-2" target="ly09rOsl8JHDzHFU_jVQ-5">
          <mxGeometry width="50" height="50" relative="1" as="geometry">
            <mxPoint x="100" y="400" as="sourcePoint" />
            <mxPoint x="300" y="400" as="targetPoint" />
          </mxGeometry>
        </mxCell>
        <mxCell id="ly09rOsl8JHDzHFU_jVQ-22" value="8" style="edgeLabel;html=1;align=center;verticalAlign=middle;resizable=0;points=[];" vertex="1" connectable="0" parent="ly09rOsl8JHDzHFU_jVQ-21">
          <mxGeometry x="-0.2415" y="-1" relative="1" as="geometry">
            <mxPoint as="offset" />
          </mxGeometry>
        </mxCell>
        <mxCell id="ly09rOsl8JHDzHFU_jVQ-23" value="初始连通图" style="text;html=1;align=center;verticalAlign=middle;whiteSpace=wrap;rounded=0;" vertex="1" parent="1">
          <mxGeometry x="-120" y="310" width="110" height="30" as="geometry" />
        </mxCell>
        <mxCell id="ly09rOsl8JHDzHFU_jVQ-24" style="rounded=0;orthogonalLoop=1;jettySize=auto;html=1;exitX=1;exitY=0.5;exitDx=0;exitDy=0;entryX=0;entryY=0.5;entryDx=0;entryDy=0;strokeColor=none;" edge="1" parent="1" source="ly09rOsl8JHDzHFU_jVQ-25" target="ly09rOsl8JHDzHFU_jVQ-26">
          <mxGeometry relative="1" as="geometry" />
        </mxCell>
        <mxCell id="ly09rOsl8JHDzHFU_jVQ-25" value="1" style="ellipse;whiteSpace=wrap;html=1;aspect=fixed;" vertex="1" parent="1">
          <mxGeometry x="180" y="550" width="40" height="40" as="geometry" />
        </mxCell>
        <mxCell id="ly09rOsl8JHDzHFU_jVQ-26" value="4" style="ellipse;whiteSpace=wrap;html=1;aspect=fixed;" vertex="1" parent="1">
          <mxGeometry x="400" y="550" width="40" height="40" as="geometry" />
        </mxCell>
        <mxCell id="ly09rOsl8JHDzHFU_jVQ-27" value="2" style="ellipse;whiteSpace=wrap;html=1;aspect=fixed;" vertex="1" parent="1">
          <mxGeometry x="60" y="700" width="40" height="40" as="geometry" />
        </mxCell>
        <mxCell id="ly09rOsl8JHDzHFU_jVQ-28" value="3" style="ellipse;whiteSpace=wrap;html=1;aspect=fixed;" vertex="1" parent="1">
          <mxGeometry x="300" y="700" width="40" height="40" as="geometry" />
        </mxCell>
        <mxCell id="ly09rOsl8JHDzHFU_jVQ-29" value="5" style="ellipse;whiteSpace=wrap;html=1;aspect=fixed;" vertex="1" parent="1">
          <mxGeometry x="414" y="750" width="40" height="40" as="geometry" />
        </mxCell>
        <mxCell id="ly09rOsl8JHDzHFU_jVQ-32" value="" style="endArrow=none;html=1;rounded=0;exitX=1;exitY=0.5;exitDx=0;exitDy=0;entryX=0;entryY=0.5;entryDx=0;entryDy=0;fillColor=#dae8fc;strokeColor=#6c8ebf;" edge="1" parent="1" source="ly09rOsl8JHDzHFU_jVQ-27" target="ly09rOsl8JHDzHFU_jVQ-28">
          <mxGeometry width="50" height="50" relative="1" as="geometry">
            <mxPoint x="230" y="580" as="sourcePoint" />
            <mxPoint x="410" y="580" as="targetPoint" />
          </mxGeometry>
        </mxCell>
        <mxCell id="ly09rOsl8JHDzHFU_jVQ-33" value="5" style="edgeLabel;html=1;align=center;verticalAlign=middle;resizable=0;points=[];" vertex="1" connectable="0" parent="ly09rOsl8JHDzHFU_jVQ-32">
          <mxGeometry x="-0.14" y="4" relative="1" as="geometry">
            <mxPoint as="offset" />
          </mxGeometry>
        </mxCell>
        <mxCell id="ly09rOsl8JHDzHFU_jVQ-34" value="" style="endArrow=none;html=1;rounded=0;exitX=0;exitY=1;exitDx=0;exitDy=0;entryX=1;entryY=0;entryDx=0;entryDy=0;fillColor=#dae8fc;strokeColor=#6c8ebf;" edge="1" parent="1" source="ly09rOsl8JHDzHFU_jVQ-25" target="ly09rOsl8JHDzHFU_jVQ-27">
          <mxGeometry width="50" height="50" relative="1" as="geometry">
            <mxPoint x="110" y="730" as="sourcePoint" />
            <mxPoint x="310" y="730" as="targetPoint" />
          </mxGeometry>
        </mxCell>
        <mxCell id="ly09rOsl8JHDzHFU_jVQ-35" value="7" style="edgeLabel;html=1;align=center;verticalAlign=middle;resizable=0;points=[];" vertex="1" connectable="0" parent="ly09rOsl8JHDzHFU_jVQ-34">
          <mxGeometry x="-0.1836" y="-3" relative="1" as="geometry">
            <mxPoint as="offset" />
          </mxGeometry>
        </mxCell>
        <mxCell id="ly09rOsl8JHDzHFU_jVQ-38" value="" style="endArrow=none;html=1;rounded=0;exitX=0.5;exitY=0;exitDx=0;exitDy=0;entryX=0.5;entryY=0;entryDx=0;entryDy=0;edgeStyle=orthogonalEdgeStyle;curved=1;fillColor=#dae8fc;strokeColor=#6c8ebf;" edge="1" parent="1" source="ly09rOsl8JHDzHFU_jVQ-27" target="ly09rOsl8JHDzHFU_jVQ-26">
          <mxGeometry width="50" height="50" relative="1" as="geometry">
            <mxPoint x="110" y="730" as="sourcePoint" />
            <mxPoint x="310" y="730" as="targetPoint" />
          </mxGeometry>
        </mxCell>
        <mxCell id="ly09rOsl8JHDzHFU_jVQ-39" value="4" style="edgeLabel;html=1;align=center;verticalAlign=middle;resizable=0;points=[];" vertex="1" connectable="0" parent="ly09rOsl8JHDzHFU_jVQ-38">
          <mxGeometry x="-0.1333" y="-27" relative="1" as="geometry">
            <mxPoint as="offset" />
          </mxGeometry>
        </mxCell>
        <mxCell id="ly09rOsl8JHDzHFU_jVQ-42" value="" style="endArrow=none;html=1;rounded=0;entryX=1;entryY=0.5;entryDx=0;entryDy=0;exitX=0.5;exitY=0;exitDx=0;exitDy=0;fillColor=#dae8fc;strokeColor=#6c8ebf;" edge="1" parent="1" source="ly09rOsl8JHDzHFU_jVQ-29" target="ly09rOsl8JHDzHFU_jVQ-26">
          <mxGeometry width="50" height="50" relative="1" as="geometry">
            <mxPoint x="520" y="720" as="sourcePoint" />
            <mxPoint x="570" y="670" as="targetPoint" />
          </mxGeometry>
        </mxCell>
        <mxCell id="ly09rOsl8JHDzHFU_jVQ-43" value="2" style="edgeLabel;html=1;align=center;verticalAlign=middle;resizable=0;points=[];" vertex="1" connectable="0" parent="ly09rOsl8JHDzHFU_jVQ-42">
          <mxGeometry x="-0.1454" y="3" relative="1" as="geometry">
            <mxPoint as="offset" />
          </mxGeometry>
        </mxCell>
        <mxCell id="ly09rOsl8JHDzHFU_jVQ-46" style="rounded=0;orthogonalLoop=1;jettySize=auto;html=1;exitX=1;exitY=0.5;exitDx=0;exitDy=0;entryX=0;entryY=0.5;entryDx=0;entryDy=0;strokeColor=none;" edge="1" parent="1" source="ly09rOsl8JHDzHFU_jVQ-47" target="ly09rOsl8JHDzHFU_jVQ-48">
          <mxGeometry relative="1" as="geometry" />
        </mxCell>
        <mxCell id="ly09rOsl8JHDzHFU_jVQ-47" value="1" style="ellipse;whiteSpace=wrap;html=1;aspect=fixed;" vertex="1" parent="1">
          <mxGeometry x="730" y="550" width="40" height="40" as="geometry" />
        </mxCell>
        <mxCell id="ly09rOsl8JHDzHFU_jVQ-48" value="4" style="ellipse;whiteSpace=wrap;html=1;aspect=fixed;" vertex="1" parent="1">
          <mxGeometry x="950" y="550" width="40" height="40" as="geometry" />
        </mxCell>
        <mxCell id="ly09rOsl8JHDzHFU_jVQ-49" value="2" style="ellipse;whiteSpace=wrap;html=1;aspect=fixed;" vertex="1" parent="1">
          <mxGeometry x="610" y="700" width="40" height="40" as="geometry" />
        </mxCell>
        <mxCell id="ly09rOsl8JHDzHFU_jVQ-50" value="3" style="ellipse;whiteSpace=wrap;html=1;aspect=fixed;" vertex="1" parent="1">
          <mxGeometry x="850" y="700" width="40" height="40" as="geometry" />
        </mxCell>
        <mxCell id="ly09rOsl8JHDzHFU_jVQ-51" value="5" style="ellipse;whiteSpace=wrap;html=1;aspect=fixed;" vertex="1" parent="1">
          <mxGeometry x="964" y="750" width="40" height="40" as="geometry" />
        </mxCell>
        <mxCell id="ly09rOsl8JHDzHFU_jVQ-54" value="" style="endArrow=none;html=1;rounded=0;exitX=1;exitY=0.5;exitDx=0;exitDy=0;entryX=0;entryY=0.5;entryDx=0;entryDy=0;fillColor=#dae8fc;strokeColor=#6c8ebf;" edge="1" parent="1" source="ly09rOsl8JHDzHFU_jVQ-49" target="ly09rOsl8JHDzHFU_jVQ-50">
          <mxGeometry width="50" height="50" relative="1" as="geometry">
            <mxPoint x="780" y="580" as="sourcePoint" />
            <mxPoint x="960" y="580" as="targetPoint" />
          </mxGeometry>
        </mxCell>
        <mxCell id="ly09rOsl8JHDzHFU_jVQ-55" value="5" style="edgeLabel;html=1;align=center;verticalAlign=middle;resizable=0;points=[];" vertex="1" connectable="0" parent="ly09rOsl8JHDzHFU_jVQ-54">
          <mxGeometry x="-0.14" y="4" relative="1" as="geometry">
            <mxPoint as="offset" />
          </mxGeometry>
        </mxCell>
        <mxCell id="ly09rOsl8JHDzHFU_jVQ-56" value="" style="endArrow=none;html=1;rounded=0;exitX=0;exitY=1;exitDx=0;exitDy=0;entryX=1;entryY=0;entryDx=0;entryDy=0;fillColor=#dae8fc;strokeColor=#6c8ebf;" edge="1" parent="1" source="ly09rOsl8JHDzHFU_jVQ-47" target="ly09rOsl8JHDzHFU_jVQ-49">
          <mxGeometry width="50" height="50" relative="1" as="geometry">
            <mxPoint x="660" y="730" as="sourcePoint" />
            <mxPoint x="860" y="730" as="targetPoint" />
          </mxGeometry>
        </mxCell>
        <mxCell id="ly09rOsl8JHDzHFU_jVQ-57" value="7" style="edgeLabel;html=1;align=center;verticalAlign=middle;resizable=0;points=[];" vertex="1" connectable="0" parent="ly09rOsl8JHDzHFU_jVQ-56">
          <mxGeometry x="-0.1836" y="-3" relative="1" as="geometry">
            <mxPoint as="offset" />
          </mxGeometry>
        </mxCell>
        <mxCell id="ly09rOsl8JHDzHFU_jVQ-62" value="" style="endArrow=none;html=1;rounded=0;exitX=0.5;exitY=1;exitDx=0;exitDy=0;entryX=0;entryY=0.5;entryDx=0;entryDy=0;edgeStyle=orthogonalEdgeStyle;curved=1;fillColor=#dae8fc;strokeColor=#6c8ebf;" edge="1" parent="1" source="ly09rOsl8JHDzHFU_jVQ-49" target="ly09rOsl8JHDzHFU_jVQ-51">
          <mxGeometry width="50" height="50" relative="1" as="geometry">
            <mxPoint x="640" y="710" as="sourcePoint" />
            <mxPoint x="980" y="560" as="targetPoint" />
          </mxGeometry>
        </mxCell>
        <mxCell id="ly09rOsl8JHDzHFU_jVQ-63" value="4" style="edgeLabel;html=1;align=center;verticalAlign=middle;resizable=0;points=[];" vertex="1" connectable="0" parent="ly09rOsl8JHDzHFU_jVQ-62">
          <mxGeometry x="0.0714" y="4" relative="1" as="geometry">
            <mxPoint as="offset" />
          </mxGeometry>
        </mxCell>
        <mxCell id="ly09rOsl8JHDzHFU_jVQ-64" value="" style="endArrow=none;html=1;rounded=0;entryX=1;entryY=0.5;entryDx=0;entryDy=0;exitX=0.5;exitY=0;exitDx=0;exitDy=0;fillColor=#dae8fc;strokeColor=#6c8ebf;" edge="1" parent="1" source="ly09rOsl8JHDzHFU_jVQ-51" target="ly09rOsl8JHDzHFU_jVQ-48">
          <mxGeometry width="50" height="50" relative="1" as="geometry">
            <mxPoint x="1070" y="720" as="sourcePoint" />
            <mxPoint x="1120" y="670" as="targetPoint" />
          </mxGeometry>
        </mxCell>
        <mxCell id="ly09rOsl8JHDzHFU_jVQ-65" value="2" style="edgeLabel;html=1;align=center;verticalAlign=middle;resizable=0;points=[];" vertex="1" connectable="0" parent="ly09rOsl8JHDzHFU_jVQ-64">
          <mxGeometry x="-0.1454" y="3" relative="1" as="geometry">
            <mxPoint as="offset" />
          </mxGeometry>
        </mxCell>
      </root>
    </mxGraphModel>
  </diagram>
</mxfile>
